<?xml version="1.0" encoding="utf-8"?>
<!-- Generator: Adobe Illustrator 21.1.0, SVG Export Plug-In . SVG Version: 6.00 Build 0)  -->
<svg version="1.1" id="Layer_1" xmlns="http://www.w3.org/2000/svg" xmlns:xlink="http://www.w3.org/1999/xlink" x="0px" y="0px"
	 viewBox="0 0 200 200" style="enable-background:new 0 0 200 200;" xml:space="preserve">
<style type="text/css">
	.st0{fill:#6BD86B;}
	.st1{fill:#FFFFFF;}
</style>
<path class="st0" d="M98,158c0,0,0,0-10,0c0,38-88,42-88-10c0-48,22-53,100-53s100,5,100,53c0,52-88,48-88,10c-10,0-10,0-10,0H98z"
	/>
<path class="st0" d="M104,87h-8V50.3c0-7.9,2.2-14.5,6.4-19.1c3.8-4.2,9.1-6.6,14.9-6.6c10.9,0,22.4,8.6,22.4,24.6
	c0,4.5,1.4,8.2,4.1,10.7c2.4,2.2,5.7,3.4,9.3,3.4c7.4,0,15.3-5.1,15.3-16.1V12h8v35.3c0,9.2-4,14.9-7.4,18c-4.2,3.9-10,6.2-15.9,6.2
	c-5.6,0-10.9-2-14.7-5.6c-4.3-4-6.6-9.8-6.6-16.6c0-10.9-7.2-16.6-14.4-16.6c-3.5,0-6.6,1.4-9,3.9c-2.8,3.1-4.3,7.8-4.3,13.7V87z"/>
<path class="st1" d="M62.3,149.4H23.7c-4.7,0-8.5-3.8-8.5-8.5s3.8-8.5,8.5-8.5h38.7c4.7,0,8.5,3.8,8.5,8.5S67,149.4,62.3,149.4z"/>
<path class="st1" d="M43,168.7c-4.7,0-8.5-3.8-8.5-8.5v-38.7c0-4.7,3.8-8.5,8.5-8.5s8.5,3.8,8.5,8.5v38.7
	C51.5,164.9,47.7,168.7,43,168.7z"/>
<circle class="st1" cx="153.7" cy="119.3" r="10.3"/>
<circle class="st1" cx="153.7" cy="162" r="10.3"/>
<circle class="st1" cx="133" cy="140.9" r="10.3"/>
<circle class="st1" cx="174.3" cy="140.9" r="10.3"/>
</svg>
