<?xml version="1.0" encoding="utf-8"?>
<!-- Generator: Adobe Illustrator 21.1.0, SVG Export Plug-In . SVG Version: 6.00 Build 0)  -->
<svg version="1.1" id="Layer_1" xmlns="http://www.w3.org/2000/svg" xmlns:xlink="http://www.w3.org/1999/xlink" x="0px" y="0px"
	 viewBox="0 0 51.2 51.2" style="enable-background:new 0 0 51.2 51.2;" xml:space="preserve">
<style type="text/css">
	.st0{fill:#2E86EF;}
</style>
<path class="st0" d="M17.2,31.9c0,0,1.4-3.8,5.6-3.8s13.8,0,17.2,0s5.2,3.8,5.2,3.8H17.2z"/>
<path class="st0" d="M17.2,42.4c0,0,1.4,3.8,5.6,3.8s13.8,0,17.2,0s5.2-3.8,5.2-3.8H17.2z"/>
<path class="st0" d="M46.6,40.2h-31c-1.7,0-3-1.3-3-3s1.3-3,3-3h31c1.7,0,3,1.3,3,3S48.3,40.2,46.6,40.2z"/>
<path class="st0" d="M2.2,11.7h22.6v2.8h-1.2l-1.1,12c0,0-5,0.2-7.2,5.5c-3.8,0-3.9,3.4-3.9,5.2s1.5,4.8,3.4,4.8
	c0,2.3,3.6,4.9,3.6,4.9H6.1L3.6,14.4H2.2V11.7z"/>
<path class="st0" d="M13.1,13.2C13.1,13.2,13.1,13.2,13.1,13.2c-0.6,0-1-0.5-1-1c0.1-3.4,2.2-10,9.1-10c0.6,0,1,0.4,1,1s-0.4,1-1,1
	c-6.7,0-7.1,7.7-7.1,8C14.1,12.8,13.7,13.2,13.1,13.2z"/>
</svg>
